# xmcd
#
# Track frame offsets: 
#        150
#        11423
#        27526
#        39191
#        52336
#        65917
#        78844
#        91405
#        101915
#        114111
#        127671
#        141800
#        151680
#        167664
#        182496
#        195964
#        211679
#        224298
#        238882
#        252320
#
# Disc length: 3567 seconds
#
# Revision: 1
# Processed by: cddbd v1.5.2PL0 Copyright (c) Steve Scherf et al.
# Submitted via: ExactAudioCopy v1.0b1
#
DISCID=060ded14
DTITLE=The Four Tops - Lost and Found - Lost Without You - Disc 1
DYEAR=2005
DGENRE=Soul
TTITLE0=Get My Hands On Some Lovin' (2005 stereo mix)
TTITLE1=I Can't Believe You're In Love With Me (2005 stereo mix)
TTITLE2=Gotta Say It, Gonna Tell It Like It Is (mono)
TTITLE3=Wonderful Baby (alt 1) (2005 stereo mix)
TTITLE4=Wonderful Baby (alt 2) (2005 stereo mix)
TTITLE5=Baby Baby Come Home (mono)
TTITLE6=What You Gonna Do With Me Baby (mono)
TTITLE7=Fantasy (mono)
TTITLE8=It's A Lonely World Without Your Love (2005 stereo mix)
TTITLE9=Sweeter As The Days Go By (mono)
TTITLE10=Loving You Is Sweeter Than Ever (alt. mix) (2005 stereo mix)
TTITLE11=Lost For Words (mono)
TTITLE12=If You Don't Want My Love (2005 stereo mix)
TTITLE13=Just One Last Look (mono)
TTITLE14=Your Love Is Wonderful (2005 stereo mix)
TTITLE15=Lonely Lover (2005 stereo mix)
TTITLE16=I Can't Escape Your Memory (mono)
TTITLE17=I'm So Afraid Of Losing You (2005 stereo mix)
TTITLE18=Sweet Was The Love (2005 stereo mix)
TTITLE19=Woman Woman (2005 stereo mix)
EXTD=
EXTT0=
EXTT1=
EXTT2=
EXTT3=
EXTT4=
EXTT5=
EXTT6=
EXTT7=
EXTT8=
EXTT9=
EXTT10=
EXTT11=
EXTT12=
EXTT13=
EXTT14=
EXTT15=
EXTT16=
EXTT17=
EXTT18=
EXTT19=
PLAYORDER=
